# xmcd
#
# Track frame offsets: 
#        150
#        23432
#        37667
#        56302
#        58290
#        77754
#        96412
#        118842
#        140110
#        140490
#        159507
#        179910
#        199950
#        218645
#        250834
#
# Disc length: 3403 seconds
#
# Revision: 1
# Processed by: cddbd v1.5.2PL0 Copyright (c) Steve Scherf et al.
# Submitted via: ExactAudioCopyFreeDBPlugin 1.0
#
DISCID=da0d490f
DTITLE=En Vogue - Masterpiece Theatre
DYEAR=2000
DGENRE=R&B
TTITLE0=Riddle
TTITLE1=No No No (Can't Come Back)
TTITLE2=Falling in Love
TTITLE3=Suite (Intro) (feat. Russell Gatewood)
TTITLE4=Love U Crazay (feat. Kamil Marzette)
TTITLE5=Sad But True
TTITLE6=Love Won't Take Me Out
TTITLE7=Whatever Will Be Will Be
TTITLE8=Suite (Outro) (feat. Russell Gatewood)
TTITLE9=Beat of Love
TTITLE10=Latin Soul
TTITLE11=Work It Out
TTITLE12=Those Dogs (feat. Bobby McFerrin and Eklypse)
TTITLE13=Number One Man
TTITLE14=Data Track
EXTD=
EXTT0=
EXTT1=
EXTT2=
EXTT3=
EXTT4=To the tune of "The Nutcracker Suite"
EXTT5=
EXTT6=
EXTT7=
EXTT8=
EXTT9=
EXTT10=
EXTT11=
EXTT12=To the tune of "Carmen"
EXTT13=
EXTT14=
PLAYORDER=
